<?xml version="1.0" encoding="utf-8"?>
<!-- Generator: Adobe Illustrator 22.1.0, SVG Export Plug-In . SVG Version: 6.00 Build 0)  -->
<svg version="1.1" id="Layer_1" xmlns="http://www.w3.org/2000/svg" xmlns:xlink="http://www.w3.org/1999/xlink" x="0px" y="0px"
	 viewBox="0 0 551 350" style="enable-background:new 0 0 551 350;" xml:space="preserve">
<style type="text/css">
	.st0{fill:#FFFFFF00;}
</style>
<g>
	<g>
		<path class="st0" d="M1.1,351c0-116.6,0-233.2,0-349.9c183.5,0,367,0,550.8,0c0,116.6,0,233.2,0,349.9
			C368.3,351,184.7,351,1.1,351z M1.8,93.9c1.1,2.2,1.7,3.5,2.5,4.7c27.7,47.3,55.6,94.4,83.1,141.9c7.4,12.9,18,18.4,32.4,18.3
			c29.2-0.1,58.3,0,87.5-0.1c3.9,0,5.9,1.3,7.8,4.6c13.4,23.4,27.1,46.7,40.4,70.1c5.9,10.4,14.9,15.9,26.4,16.3c18,0.6,36,0.5,54,0
			c10.2-0.3,18.4-5,23.5-14.5c5.8-10.7,12.1-21.1,18.2-31.6c5-8.6,9.9-17.2,15.4-26.8c-2.9,0-4.9,0-6.8,0c-46.7,0-93.3,0-140,0
			c-1.9,0-4.9,0.2-5.7-0.8c-3.7-5.1-6.7-10.7-10.7-17.2c54.2,0,106.7,0,160,0c-1.6-2.9-2.7-5.1-3.9-7.2c-8.8-15.7-17.4-31.5-26.5-47
			c-7.5-12.8-18.3-20.5-34.1-19.1c-4.8,0.4-9.7,0.1-14.5,0.1c-77.5,0-155,0-232.5,0c-2.1,0-5.2,0.1-6-1.1c-3.6-5-6.5-10.5-10.3-16.9
			c92.8,0,184,0,275.9,0c-5-8.9-9.3-17.1-14.2-25c-7.9-12.9-15.7-25.9-24.4-38.2c-5.6-8-14.5-10.8-24.3-10.4c-2.7,0.1-5.3,0.2-8,0.2
			c-86.2,0-172.3,0-258.5,0C6.8,93.9,4.8,93.9,1.8,93.9z M63.8,1.7c1.5,2.7,2.3,4.5,3.3,6.2c10.3,17.7,20.4,35.6,31,53.1
			c2.3,3.8,5.9,7.7,9.9,9.4c5.9,2.6,12.7,4.5,19.1,4.5c51.6,0.4,103.3,0.5,155,0c16-0.2,26.6,6.8,34.2,19.9
			c28.9,49.8,57.8,99.7,86.7,149.6c0.7,1.2,1.6,2.4,2.6,3.9c0.6-0.8,0.9-1.2,1.2-1.6c10.6-18.5,21.3-36.9,31.7-55.5
			c6.4-11.4,5.9-22.9-0.9-34.2c-5-8.3-9.8-16.7-14.6-25C401.6,95.3,380,59,359.2,22.1c-8.1-14.4-19.3-20.5-35.3-20.5
			C239.6,1.7,155.3,1.7,71,1.7C68.9,1.7,66.9,1.7,63.8,1.7z M550.4,167.4c0.4-0.5,0.8-1,1.2-1.4c-12.6-20.5-24.7-41.3-37.9-61.4
			c-5.2-7.9-14-10.7-23.7-10.7c-21.1,0.1-42.3,0-63.4,0.1c-1.4,0-2.8,0.2-4.7,0.3c0.5,1.2,0.7,2,1.1,2.6c11,19,22,38.1,33.1,57
			c3.3,5.7,8.6,9.5,14.9,11.1c5.8,1.4,11.8,2.4,17.7,2.5c19,0.2,38,0,56.9-0.1C547.1,167.4,548.8,167.4,550.4,167.4z"/>
		<path d="M1.8,93.9c3,0,5,0,7,0c86.2,0,172.3,0,258.5,0c2.7,0,5.3-0.1,8-0.2c9.8-0.4,18.7,2.4,24.3,10.4
			c8.7,12.3,16.5,25.3,24.4,38.2c4.8,7.9,9.2,16.2,14.2,25c-92,0-183.2,0-275.9,0c3.8,6.4,6.7,11.9,10.3,16.9c0.9,1.2,4,1.1,6,1.1
			c77.5,0,155,0,232.5,0c4.8,0,9.7,0.4,14.5-0.1c15.8-1.4,26.5,6.3,34.1,19.1c9.1,15.5,17.7,31.3,26.5,47c1.2,2.1,2.3,4.3,3.9,7.2
			c-53.3,0-105.9,0-160,0c3.9,6.5,7,12.1,10.7,17.2c0.8,1.1,3.7,0.8,5.7,0.8c46.7,0,93.3,0,140,0c1.9,0,3.9,0,6.8,0
			c-5.5,9.6-10.4,18.2-15.4,26.8c-6.1,10.5-12.4,21-18.2,31.6c-5.1,9.5-13.3,14.2-23.5,14.5c-18,0.5-36,0.6-54,0
			c-11.5-0.4-20.5-5.9-26.4-16.3c-13.4-23.4-27.1-46.7-40.4-70.1c-1.9-3.3-4-4.6-7.8-4.6c-29.2,0.2-58.3,0-87.5,0.1
			c-14.4,0.1-24.9-5.4-32.4-18.3C59.9,193.1,32,145.9,4.3,98.7C3.6,97.4,2.9,96.1,1.8,93.9z"/>
		<path d="M63.8,1.7c3.1,0,5.2,0,7.2,0c84.3,0,168.6,0.1,252.9-0.1c16,0,27.2,6.2,35.3,20.5C380,59,401.6,95.3,422.9,131.9
			c4.9,8.3,9.6,16.7,14.6,25c6.8,11.3,7.2,22.8,0.9,34.2c-10.4,18.6-21.1,37-31.7,55.5c-0.2,0.4-0.6,0.8-1.2,1.6
			c-1-1.6-1.9-2.7-2.6-3.9c-28.9-49.9-57.7-99.8-86.7-149.6C308.6,81.7,298,74.7,282,74.8c-51.6,0.5-103.3,0.3-155,0
			c-6.4,0-13.2-2-19.1-4.5c-3.9-1.7-7.6-5.6-9.9-9.4c-10.6-17.5-20.7-35.3-31-53.1C66.1,6.1,65.2,4.4,63.8,1.7z"/>
		<path d="M550.4,167.4c-1.6,0-3.3,0-4.9,0c-19,0.1-38,0.3-56.9,0.1c-5.9-0.1-11.9-1-17.7-2.5c-6.3-1.6-11.5-5.4-14.9-11.1
			c-11.1-19-22.1-38-33.1-57c-0.4-0.7-0.6-1.4-1.1-2.6c1.9-0.1,3.3-0.3,4.7-0.3c21.1,0,42.3,0.1,63.4-0.1
			c9.6-0.1,18.5,2.8,23.7,10.7c13.2,20.1,25.4,40.9,37.9,61.4C551.2,166.4,550.8,166.9,550.4,167.4z"/>
	</g>
</g>
</svg>
